<svg xmlns="http://www.w3.org/2000/svg" xmlns:xlink="http://www.w3.org/1999/xlink" viewBox="0 0 1001.94 676.19"><defs><style>.cls-1,.cls-15,.cls-6{fill:none;}.cls-2{isolation:isolate;}.cls-3{fill:#98bce3;}.cls-4{fill:#3a1770;}.cls-5{fill:#522d8c;}.cls-15,.cls-6{stroke:#280959;stroke-width:11px;}.cls-6{stroke-linecap:round;stroke-linejoin:round;}.cls-7{opacity:0.3;}.cls-8{fill:#ff8e9e;}.cls-9{fill:#f1ebfa;}.cls-10{fill:#c6b3e6;}.cls-11{fill:#321363;}.cls-12{fill:#280959;}.cls-13{fill:#ff546c;}.cls-14{fill:#fcfaff;}.cls-15{stroke-miterlimit:10;}.cls-16{fill:#fff;}.cls-17{mix-blend-mode:multiply;opacity:0.8;}.cls-18{clip-path:url(#clip-path);}.cls-19{opacity:0.15;}.cls-20{clip-path:url(#clip-path-2);}.cls-21{fill:#ded0f5;}.cls-22{fill:#cec9d6;}.cls-23{fill:#ffb3be;}</style><clipPath id="clip-path"><rect class="cls-1" x="399.88" y="251.47" width="56.1" height="56.11"/></clipPath><clipPath id="clip-path-2"><rect class="cls-1" x="398.84" y="272.48" width="56.08" height="38.54"/></clipPath></defs><g class="cls-2"><g id="Layer_1" data-name="Layer 1"><path class="cls-3" d="M501,506.43a190.91,190.91,0,1,1,135-55.91,189.65,189.65,0,0,1-135,55.91"/><path class="cls-4" d="M572.84,450.56c14.81-18,36.51-18.84,60.64-18.11s44.45,29.67,60.35,48.61c11.34,13.52,18.48,32.56,11.59,47.8-5.19,11.51-17,18.2-28.1,24.21-12.41,6.71-27.15,10.62-41.61,8.57-7.5-1.06-13.36-1.5-20-5.49-9.25-5.6-18.2-12.86-22.4-22.72s4-32.32,13.1-37.13"/><path class="cls-5" d="M693.83,481.06c-15.9-18.94-36.22-47.88-60.35-48.61-19.47-.59-37.35-.16-51.32,9.49,8.68-1.25,18.05-1.22,27.82-.92,24.12.73,44.45,29.68,60.34,48.61,11.35,13.52,18.48,32.56,11.6,47.8-5.2,11.51-17,18.2-28.1,24.22-1.78,1,14.43-3.67,23.5-8.58,11.13-6,22.91-12.7,28.1-24.21,6.89-15.24-.25-34.28-11.59-47.8"/><path class="cls-6" d="M645.33,558.55c-22.86-2.27-49.57-8.54-52-25.11-1.52-10.6-1.06-45.62,53.95-48.06"/><path class="cls-6" d="M572.84,450.56c14.81-18,37.07-23.32,60.64-18.11,30.92,6.83,44.45,29.67,60.35,48.61,11.34,13.52,18.48,32.56,11.59,47.8-5.19,11.51-17,18.2-28.1,24.21-7,3.8-20.33,7.39-33.42,5.28"/><g class="cls-7"><path class="cls-8" d="M501,506.51a190.91,190.91,0,1,1,135-55.92,189.62,189.62,0,0,1-135,55.92"/></g><path class="cls-9" d="M611.2,533.51c0,69.79-61,99-136.31,99s-136.3-29.21-136.3-99,61-153.7,136.3-153.7S611.2,463.73,611.2,533.51"/><path class="cls-10" d="M596.57,494.17c-5.79,5-12.18,9.26-18.5,13.55-6,4-12,8.09-17.27,13.07a36.54,36.54,0,0,0-6.15,7.48,34.28,34.28,0,0,0-3.94,9.41,36.85,36.85,0,0,0,.45,19.79,31.19,31.19,0,0,0,10.65,15.79,27.23,27.23,0,0,0,8.71,4.41,34,34,0,0,0,11.92,1.1,72.66,72.66,0,0,0,16.14-3c1.31-.39,2.61-.8,3.91-1.23,5.62-11.71,8.71-25.32,8.71-41a145,145,0,0,0-8-46,60.15,60.15,0,0,1-6.63,6.63"/><path class="cls-10" d="M515.5,388.06a106.48,106.48,0,0,0-40.61-8.25c-75.27,0-136.3,83.92-136.3,153.7,0,30.62,17.34,55.73,15.94,54-44.4-54.33,30.15-99.73,41-110.12,10.58-10.18,24.47-18.61,34-29.68,10.51-12.24,23.3-22.33,36.76-31.15,14-9.21,28.86-17.1,43.71-24.87l5.88-3.08-.3-.57"/><path class="cls-4" d="M479.54,502.44c63.83,8,99.84,6.88,126.61-1.83-8.17-46.41-81.84-120.8-131.26-120.8S382.2,416,358.3,460.56c28.55,18.75,75.21,36.13,121.24,41.88"/><path class="cls-11" d="M409.86,458.35c25.73-.1,51.49-1,77.12-3.37,12.76-1.19,25.63-2.52,38.23-5a238.43,238.43,0,0,0,35.84-10.18c4.53-1.64,9.07-3.34,13.58-5.15-24.89-31.89-60.36-54.87-99.74-54.87-47.33,0-89,33.18-113.45,75.16a305.74,305.74,0,0,0,48.42,3.38"/><path class="cls-4" d="M469.79,610.78C413,614.22,368.35,591.5,342.25,561.16c14.22,49.94,68.2,71.35,132.64,71.35s118.43-21.41,132.64-71.35c-.65-6.61,1.28-34.35-11.1-15.49-21.8,33.2-75.9,62-126.64,65.11"/><path class="cls-11" d="M596.43,545.67c-7.09,10.8-17.61,21.12-30.31,30.26a25.65,25.65,0,0,0,4.4,1.74,34,34,0,0,0,11.92,1.1,72.46,72.46,0,0,0,16.13-3c1.32-.39,2.62-.8,3.92-1.23q1.05-2.19,2-4.47c0-.06,0-.12.08-.19.27-.67.54-1.36.8-2,.08-.21.15-.43.23-.64.2-.54.4-1.09.59-1.64l.3-.91.45-1.4c.12-.37.22-.74.34-1.12l.27-1c-.65-6.64,1.27-34.31-11.1-15.47"/><path class="cls-12" d="M474.89,379.81c75.28,0,136.31,83.92,136.31,153.7s-61,99-136.31,99-136.3-29.21-136.3-99,61-153.7,136.3-153.7m0-11c-19.92,0-39.55,5.23-58.35,15.56-17.11,9.4-32.76,22.56-46.49,39.1-26.59,32-42.46,73.15-42.46,110,0,36.44,15.54,65.8,44.93,84.9,25.28,16.42,60.68,25.1,102.37,25.1s77.1-8.68,102.38-25.1c29.39-19.1,44.93-48.46,44.93-84.9,0-36.89-15.88-78-42.46-110-13.74-16.54-29.38-29.7-46.49-39.1-18.8-10.33-38.44-15.56-58.36-15.56"/><path class="cls-4" d="M243.88,307.34c16.91-9.43,38.58-2.82,48.39,14.77s4.05,39.5-12.86,48.94-38.58,2.82-48.39-14.78-4.06-39.5,12.86-48.93"/><path class="cls-4" d="M329,388c16.91-9.44,38.58-2.82,48.39,14.77s4.06,39.5-12.86,48.93S326,454.56,316.18,437,312.13,397.47,329,388"/><path class="cls-4" d="M357.35,454.73c-35.69,8-108.85-18.34-129.25-103.7-11.6-48.5,49.22-59.7,65.25-26.83,22.94,47,37.08,49.86,58.31,59.89s5.69,70.64,5.69,70.64"/><path class="cls-11" d="M371.27,392.11a104,104,0,0,1-20.15,5.77,116.14,116.14,0,0,1-52.14-3.1,69.72,69.72,0,0,1-21.09-10.38A50.93,50.93,0,0,1,263,367.1a58.81,58.81,0,0,1-6.16-24.55,103.25,103.25,0,0,1,2-25.11,88.89,88.89,0,0,1,3.3-12C241.6,305.2,220.9,320.93,228.1,351c18.61,77.85,81.09,106.59,119,105a33.89,33.89,0,0,0,17.45-4.28c16.92-9.43,42-22.87,32.22-40.46-3.3-5.9-14.66-13.51-25.52-19.17"/><path class="cls-5" d="M353.62,385.24a4.52,4.52,0,0,0-1.64,1.5l-.83-.26c-22.71-6-37.13-6.18-68.27-48.23-14-18.85-42.72-16.51-56.21-.39,1.33-37.1,52.22-43.31,66.68-13.66,22.94,47,37.08,49.86,58.31,59.89a13.08,13.08,0,0,1,2,1.15"/><path class="cls-6" d="M364.57,451.74A33.89,33.89,0,0,1,347.12,456c-37.93,1.6-100.41-27.14-119-105-.39-1.63-.69-3.2-.92-4.74-3.49-15.21,2.87-31.25,16.7-39,16.91-9.43,38.58-2.82,48.39,14.77.35.64.69,1.29,1,1.94l.08.15c22.94,47,37.08,49.86,58.31,59.89.2.09,15.41,6.86,35.56,21.22"/><path class="cls-8" d="M250.64,338.46c3.13,3.73,3.05,9-.17,11.65S242.1,352,239,348.24s-3.05-8.94.17-11.64,8.37-1.87,11.5,1.86"/><path class="cls-8" d="M264.05,326.17c1.8,4.52.1,9.45-3.8,11s-8.54-.84-10.34-5.36-.11-9.45,3.8-11,8.53.84,10.34,5.36"/><path class="cls-8" d="M280.4,350.92c3.08,7.71-.09,16.22-7.07,19s-15.15-1.2-18.23-8.9.09-16.22,7.08-19,15.15,1.19,18.22,8.9"/><path class="cls-8" d="M281.63,330.67c0,4.86-3.48,8.78-7.69,8.75s-7.58-4-7.54-8.88,3.48-8.78,7.69-8.75,7.58,4,7.54,8.88"/><path class="cls-13" d="M246.32,346.84c3.09-2.58,3.28-7.48.54-11.16a9.77,9.77,0,0,1,3.78,2.78c3.13,3.73,3.05,9-.17,11.65S242.1,352,239,348.24c-.13-.15-.25-.32-.37-.48a7.43,7.43,0,0,0,7.72-.92"/><path class="cls-13" d="M256.1,333.92c3.91-1.56,5.61-6.49,3.8-11a10.24,10.24,0,0,0-1.14-2.09,9.32,9.32,0,0,1,5.29,5.35c1.8,4.52.1,9.45-3.8,11-3.25,1.3-7-.15-9.2-3.26a7,7,0,0,0,5.05,0"/><path class="cls-13" d="M269.18,366.66c7-2.79,10.16-11.3,7.08-19a16.34,16.34,0,0,0-3-4.86,15.77,15.77,0,0,1,7.16,8.12c3.08,7.71-.09,16.22-7.07,19-5.31,2.12-11.29.32-15.21-4.05a13,13,0,0,0,11.06.78"/><path class="cls-13" d="M269.8,336.16c4.2,0,7.64-3.89,7.68-8.76a9.68,9.68,0,0,0-1.49-5.31c3.27,1,5.67,4.47,5.64,8.58,0,4.86-3.48,8.78-7.69,8.75a7.29,7.29,0,0,1-6-3.57,6.69,6.69,0,0,0,1.9.31"/><path class="cls-4" d="M397.68,169.23a80,80,0,1,1,77.24-59.32,79.89,79.89,0,0,1-77.24,59.32"/><path class="cls-12" d="M397.59,14.67a74.52,74.52,0,1,1-71.93,55.24,74.64,74.64,0,0,1,71.93-55.24m0-11v0A85.56,85.56,0,1,0,419.77,6.6a85.6,85.6,0,0,0-22.18-2.93"/><path class="cls-5" d="M416.92,17.22a74.37,74.37,0,0,0-63.28,11.86,74.5,74.5,0,0,1,74.07,128.28A74.51,74.51,0,0,0,416.92,17.22"/><path class="cls-11" d="M378.35,161.17a74.32,74.32,0,0,0,63.27-11.85A74.49,74.49,0,0,1,367.56,21a74.5,74.5,0,0,0,10.79,140.13"/><path class="cls-8" d="M429.71,97.79a33.21,33.21,0,1,1-23.48-40.67,33.2,33.2,0,0,1,23.48,40.67"/><path class="cls-13" d="M404,116.42a33.2,33.2,0,0,1-8.83-60.34,33.2,33.2,0,1,0,19.85,61.38,33.24,33.24,0,0,1-11-1"/><path class="cls-4" d="M714.67,254.17a80,80,0,1,1,77.24-59.32,80.3,80.3,0,0,1-77.24,59.32Z"/><path class="cls-12" d="M714.58,99.61a74.52,74.52,0,1,1-71.93,55.24,74.59,74.59,0,0,1,71.93-55.24m0-11a85.62,85.62,0,1,0,22.18,2.93,85.61,85.61,0,0,0-22.18-2.93"/><path class="cls-5" d="M786.6,193.42a74.37,74.37,0,0,1-41.9,48.88A74.5,74.5,0,0,0,670.64,114a74.5,74.5,0,0,1,116,79.41"/><path class="cls-11" d="M642.66,154.85A74.34,74.34,0,0,1,684.55,106a74.5,74.5,0,0,0,74.07,128.28,74.5,74.5,0,0,1-116-79.41"/><path class="cls-8" d="M682.55,165.54a33.21,33.21,0,1,0,40.67-23.48,33.21,33.21,0,0,0-40.67,23.48"/><path class="cls-13" d="M695.48,194.51a33.2,33.2,0,0,0,37.81-47.84,33.2,33.2,0,1,1-47.88,43.23,33.15,33.15,0,0,0,10.07,4.61"/><path class="cls-9" d="M730.61,337.32C702.68,441.58,593.2,466.55,474.89,434.85S274.26,326.79,302.2,222.52,457.76,25.59,576.06,57.29s182.49,175.77,154.55,280"/><path class="cls-10" d="M526.89,399.65c-51-13.67-99.84-68.11-76.93-111.92,13.41-25.63-83.81,9.75-92.39-12.55-10.13-26.32-12-55.77-3.38-87.85,11-41.05,37.45-80.29,72.7-110.87-60.48,31-108.77,86.66-124.69,146.06-27.94,104.27,54.39,180.63,172.69,212.33,90.23,24.17,175.31,15.38,223-36.4-47.08,18.89-107.78,18.14-171,1.2"/><path class="cls-14" d="M576.06,57.29c-68-18.21-139,4.63-192.43,47.12,47.85-27.26,104.43-39.14,159-24.51,118.31,31.7,182.49,175.77,154.56,280-7.75,28.93-21.79,51.75-40.54,68.95,35.6-17.43,62.1-47.37,73.94-91.56C758.55,233.06,694.36,89,576.06,57.29"/><path class="cls-15" d="M730.61,337.32C702.68,441.58,593.2,466.55,474.89,434.85S274.26,326.79,302.2,222.52,457.76,25.59,576.06,57.29,758.55,233.06,730.61,337.32Z"/><path class="cls-14" d="M556.42,72.25c3.67.61,7.23,1.66,10.81,2.63,4.8,1.31,9.71,2.19,14.55,3.3q9,2.05,17.89,4.26l6-14.49c-6.24-2.73-12.11-6.83-15.69-12.8-3.3-5.51-4.41-12.18-4.86-18.73A110.51,110.51,0,0,1,587.36,5.5a60.36,60.36,0,0,0-21.57,32.28A34.51,34.51,0,0,1,555.5,24.49a51.06,51.06,0,0,0-8.87,34.3,48.92,48.92,0,0,0,3.24,12.95,28.12,28.12,0,0,1,6.55.51"/><path class="cls-6" d="M605.68,68c-6.24-2.73-12.11-6.83-15.69-12.8-3.3-5.51-4.41-12.18-4.86-18.73A110.51,110.51,0,0,1,587.36,5.5a60.36,60.36,0,0,0-21.57,32.28A34.51,34.51,0,0,1,555.5,24.49a51.23,51.23,0,0,0-9.11,27.4"/><path class="cls-4" d="M424.82,328.34c-36.7,17.08-72.6,8.75-88.45-5.74-29.75-27.18-19.34-78.42,17-117.2s88-54.62,117.73-27.43c22.69,20.75,26.08,60.54,10.28,95.46-4.91,10.85-18.82,37.36-56.54,54.91"/><path class="cls-4" d="M571.51,367.65C594.76,400.79,630,411.52,651,406.9c39.36-8.67,56-58.25,43.9-110S646,205.62,606.64,214.3c-30,6.61-52.86,39.38-56.64,77.52-1.17,11.86-2.38,41.77,21.51,75.83"/><path class="cls-5" d="M471.08,178c-22.52-20.58-57.6-16.5-89.08,3.51,28.26-14.14,57.81-15.12,77.63,3,22.7,20.74,26.08,60.54,10.28,95.46-4.17,9.22-14.86,29.76-41.13,46.49,34.73-17.51,47.85-42.53,52.58-53,15.8-34.92,12.41-74.71-10.28-95.46"/><path class="cls-5" d="M694.88,296.91c-12.06-51.74-48.88-91.28-88.24-82.61a57.17,57.17,0,0,0-21.11,9.63,54.5,54.5,0,0,1,9.66-3.14c39.36-8.67,76.18,30.88,88.25,82.62,9.75,41.84.75,82.26-23.87,100.78,33.12-13.56,46.46-59.48,35.31-107.28"/><path class="cls-16" d="M457.82,291.08c-17.07,25.2-47.47,34.41-67.91,20.57s-23.18-45.49-6.12-70.69,47.47-34.41,67.91-20.57,23.18,45.49,6.12,70.69"/><path class="cls-16" d="M561.57,318.88c2.17,30.36,23.9,53.54,48.52,51.77s42.82-27.8,40.64-58.16-23.9-53.53-48.52-51.77-42.82,27.81-40.64,58.16"/><path class="cls-6" d="M561,315.3a33.37,33.37,0,0,1,40.87-23.6"/><path class="cls-6" d="M561,315.3c1.62-6,17.36-7.07,35.17-2.3s30.92,13.54,29.3,19.57"/><path class="cls-12" d="M395.66,271a33.37,33.37,0,1,0,40.88-23.6A33.37,33.37,0,0,0,395.66,271"/><path class="cls-12" d="M455,286.78a28,28,0,1,1-19.83-34.35A28,28,0,0,1,455,286.78"/><g class="cls-17"><g class="cls-18"><path class="cls-12" d="M455,286.78a28,28,0,1,1-19.83-34.35A28,28,0,0,1,455,286.78"/></g></g><g class="cls-19"><g class="cls-20"><path class="cls-16" d="M421.41,303.86a28.19,28.19,0,0,1-20.58-31.38,27.63,27.63,0,0,0-1,3,28.2,28.2,0,1,0,54.48,14.6,26.69,26.69,0,0,0,.63-3.13,28.19,28.19,0,0,1-33.51,16.88"/></g></g><path class="cls-16" d="M426.58,270.23a5.26,5.26,0,1,1-3.72-6.44,5.25,5.25,0,0,1,3.72,6.44"/><path class="cls-16" d="M451.84,268.32a11.35,11.35,0,1,1-8-13.9,11.34,11.34,0,0,1,8,13.9"/><path class="cls-9" d="M568.6,370.62c-7.67,28.63-43.42,34.22-82.83,23.66s-67.59-33.28-59.91-61.9S474.13,280,513.54,290.6s62.73,51.39,55.06,80"/><path class="cls-14" d="M513.54,290.6c-24.34-6.52-49.12,0-66.33,12.73a77.85,77.85,0,0,1,47.35-2.5c39.42,10.56,62.73,51.39,55.06,80a34.16,34.16,0,0,1-9.24,16c14.16-3.83,24.5-12.29,28.22-26.19,7.67-28.63-15.64-69.46-55.06-80"/><path class="cls-21" d="M532.32,393.47c-56.12-15-97.53-42.43-89.28-73.2,2.69-10.07,10.38-19.24,21.45-26.51-19.32,7.71-34.28,22.37-38.64,38.62-7.67,28.62,20.5,51.33,59.92,61.9,21.4,5.73,41.71,6.7,57,1.81-3.47-.81-7-1.67-10.49-2.62"/><path class="cls-12" d="M533.94,293.05c-1.72,6.4-21.22,12.78-24.26,12s-16.74-16.09-15-22.5,11.9-9.24,22.75-6.34,18.25,10.46,16.53,16.87"/><path class="cls-12" d="M552.87,335.23s-17.29,5.23-32.55,1.89c-6.6-4.27-14.07-8.89-16.65-9.65h-.05l-.05,0h0c-2.61-.63-11.39-.37-19.25,0-14.88-4.74-27.23-17.92-27.23-17.92-5.76,10.91-2.75,70.11,30.18,78.93s65.14-40.93,65.61-53.26"/><path class="cls-14" d="M527.09,341.92c-18.93-3-21.37-17.52-22.51-18.05h0c-1.25-.12-10.64,11.27-28.52,4.38a43.37,43.37,0,0,1-10.61-7.82,15.62,15.62,0,0,0-.37,2.25,100.64,100.64,0,0,0,1.09,23.47c.53.45,22.43,14.94,42.22,17.53.43.05-12.26,4.31-37.53-1.7,3.7,8,9.59,14.67,18.92,17.17,28,7.5,48.15-33.3,49.63-36.55a16.7,16.7,0,0,0,.8-2.14,43.18,43.18,0,0,1-13.1,1.46"/><path class="cls-22" d="M465.49,341.48a37.84,37.84,0,0,0,6,3.8c17.87,6.89,25.93.51,27.18.62h0c1.15.53,4.93,10.09,23.85,13.06a37.32,37.32,0,0,0,7.1-.3,100.83,100.83,0,0,0,9.77-16.06,16.7,16.7,0,0,0,.8-2.14,43.22,43.22,0,0,1-13.1,1.47c-18.93-3-21.37-17.53-22.51-18.06h0c-1.25-.12-10.64,11.27-28.52,4.38a43.37,43.37,0,0,1-10.61-7.82,15.62,15.62,0,0,0-.37,2.25,99.34,99.34,0,0,0,.43,18.8"/><path class="cls-6" d="M506.26,317.78a18.79,18.79,0,0,0,13.29,23c5.78,1.55,16.89,2.49,31-8.82"/><path class="cls-6" d="M506.26,317.78a18.78,18.78,0,0,1-23,13.28c-5.78-1.55-15.87-6.28-22.45-23.15"/><path class="cls-12" d="M999.44,557.34l-.36-.91-.43-.87a27.63,27.63,0,0,0-14.2-13.12,34.52,34.52,0,0,0-13.4-2.41,29,29,0,0,0-13,3,32.22,32.22,0,0,0-14.34-3.14,30.48,30.48,0,0,0-7.25.86,31.71,31.71,0,0,0-6.9-.77H902a28.79,28.79,0,0,0-15.65,4.35,26.3,26.3,0,0,0-11.27,15.14,32.07,32.07,0,0,0-1,4.58c-11.25-10.6-22.76-12.93-30.68-12.93a43.83,43.83,0,0,0-10.46,1.22A45,45,0,0,0,821.41,551a33.34,33.34,0,0,0-17,4.24,41.67,41.67,0,0,0-18.63-4.36,37.14,37.14,0,0,0-14.75,3,42.64,42.64,0,0,0-16.07-3,35.84,35.84,0,0,0-9.87,1.4A41.32,41.32,0,0,0,733.93,551a36.51,36.51,0,0,0-12.49,2c-.32-.11-.64-.23-1-.33A42.82,42.82,0,0,0,707.35,551a37.32,37.32,0,0,0-10.27,1.36,40.84,40.84,0,0,0-10.2-1.27,43.78,43.78,0,0,0-19.38,4.53c-.4-.23-.78-.45-1.15-.64-.55-.28-1.09-.55-1.64-.8-.12-.5-.26-1-.41-1.46l-.13-.4-.14-.4c-1.61-4.59-8.58-19.56-30.6-19.58-8,0-14,1.85-18.39,4.41A47.55,47.55,0,0,0,602.59,531a61.38,61.38,0,0,0-18.39-2.69c-17.7,0-28.85,7.42-35.09,13.66a45.78,45.78,0,0,0-12.34,21.44c-8.81-8.91-21-13.73-35.1-13.74a54.2,54.2,0,0,0-30.82,9.15,41.27,41.27,0,0,0-24.8-8.14,37.21,37.21,0,0,0-14.75,3,42.75,42.75,0,0,0-16.06-3.06,35.84,35.84,0,0,0-9.87,1.4,41.65,41.65,0,0,0-11.13-1.3,36.6,36.6,0,0,0-12.49,2c-.32-.12-.65-.24-1-.34a42.77,42.77,0,0,0-13.1-1.72,37.38,37.38,0,0,0-10.28,1.37,40.32,40.32,0,0,0-10.2-1.27,43.8,43.8,0,0,0-8.93.92c-.19-.72-.39-1.42-.62-2.11a27.65,27.65,0,0,0-8.69-13A30.38,30.38,0,0,0,317.76,531a40.52,40.52,0,0,0-11.25-1.43,39.52,39.52,0,0,0-12,1.71,28.7,28.7,0,0,0-11.66,7.07c-.36-.36-.73-.7-1.11-1a29.48,29.48,0,0,0-11.09-6.12,44.09,44.09,0,0,0-24.11.06A28.48,28.48,0,0,0,230,544.86c-2.59,4.76-3.85,10.32-3.85,17v.35c-8.71-8.21-20.44-12.65-34-12.65A54,54,0,0,0,159.57,560a44.36,44.36,0,0,0-16.44-7.8c0-.31-.06-.61-.1-.91a31.61,31.61,0,0,0-3.38-10.45c-3.09-6.06-10.81-15.59-28.84-15.6-7.73,0-13.57,1.76-18,4.22-1.36-.13-2.76-.19-4.23-.2l-57.51,0a34.59,34.59,0,0,0-15.78,3.41,27,27,0,0,0-13.66,16A37,37,0,0,0,0,560.18a37.72,37.72,0,0,0,1.58,11.36,27.41,27.41,0,0,0,14,16.5,31.52,31.52,0,0,0,11.69,3.12v28.51a50.31,50.31,0,0,0,.35,6.58A31.37,31.37,0,0,0,31,636.72a27.85,27.85,0,0,0,16.35,13.73,39.4,39.4,0,0,0,12.38,1.78h0A40.38,40.38,0,0,0,72,650.52a28.34,28.34,0,0,0,13.22-8.74c4.32,5.12,12,10.47,25.51,10.47,7.86,0,13.77-1.79,18.18-4.3,4.38,2.5,10.23,4.32,18,4.32h0c8.35,0,14.49-2,19-4.78,1,.52,2,1,3,1.48a56.76,56.76,0,0,0,23.15,4.67h.06c10.72,0,18.85-1.31,25.57-4.12a33.63,33.63,0,0,0,13.67-10.2c3.79,5.72,11.67,13,27.31,13,11.9,0,19.34-4.15,23.9-8.64A29.63,29.63,0,0,0,292.3,650c4,1.6,8.41,2.31,14.33,2.31h0c8.86,0,15.25-2.3,19.81-5.33a43.17,43.17,0,0,0,20.36,5.15,45.54,45.54,0,0,0,11-1.29,45.54,45.54,0,0,0,11.49,1.3h0a36.32,36.32,0,0,0,12.07-1.92,39.15,39.15,0,0,0,13.32,2.14,38.18,38.18,0,0,0,15.42-2.95,41.59,41.59,0,0,0,30.82,0,37.6,37.6,0,0,0,15.36,3h0c8.32,0,14.45-2,18.95-4.79,1,.52,2,1,3.06,1.49a56.92,56.92,0,0,0,23.15,4.67h.06c10.72,0,18.85-1.31,25.57-4.12a32.54,32.54,0,0,0,16.48-14.5,50,50,0,0,0,12.71,10.62,48.31,48.31,0,0,0,13.31,5.7,58.54,58.54,0,0,0,15.42,2h0a55.46,55.46,0,0,0,30.7-9.26c.29-.19.57-.4.85-.6,7.81,5.87,17.72,8.85,29.54,8.86h.06a48.67,48.67,0,0,0,6.43-.35,32.71,32.71,0,0,0,9.68-2.89l.29-.13L663,649a29.31,29.31,0,0,0,3.16-1.85,43.12,43.12,0,0,0,20.4,5.17,45.48,45.48,0,0,0,11-1.29,45.21,45.21,0,0,0,11.5,1.3h0a36.55,36.55,0,0,0,12.07-1.91,39.52,39.52,0,0,0,13.33,2.13,38,38,0,0,0,15.42-3,37.51,37.51,0,0,0,15.39,3,38,38,0,0,0,15.43-3,34.32,34.32,0,0,0,9.84,2.62,32.34,32.34,0,0,0,3.21,8.81,28,28,0,0,0,16.16,13.34,39.53,39.53,0,0,0,12.4,1.78h0a38.94,38.94,0,0,0,12.48-1.82,27.87,27.87,0,0,0,16.12-13.64,31.68,31.68,0,0,0,3.35-10.24c0-.26.07-.52.1-.79,6.86-1.88,14.64-5.9,22.16-13.87a50.4,50.4,0,0,0,12.56-23c.25.49.5,1,.78,1.47l.41.71.45.68a27.15,27.15,0,0,0,14.15,10.67A34.68,34.68,0,0,0,916,628.05h0a36.23,36.23,0,0,0,10.11-1.31l.46-.13a26.81,26.81,0,0,0,3.38-1.29,33.47,33.47,0,0,0,13.92,2.75,34.21,34.21,0,0,0,14.22-2.83,33.28,33.28,0,0,0,14.14,2.84h0a31.13,31.13,0,0,0,16.32-4.1,26.24,26.24,0,0,0,12.65-17.16,37.36,37.36,0,0,0,.73-7.76V570.85A36,36,0,0,0,999.44,557.34Z"/><path class="cls-23" d="M31.11,552.76l57.49,0a11.39,11.39,0,0,1,4.86.78A3.94,3.94,0,0,1,95.53,556a15.11,15.11,0,0,1,.51,4.34,14.23,14.23,0,0,1-.52,4.29,3.51,3.51,0,0,1-1.76,2.22,12,12,0,0,1-5.27.93H68.74l0,52a27.14,27.14,0,0,1-.16,3.51,8.23,8.23,0,0,1-.93,2.64,4.38,4.38,0,0,1-2.74,2.12,17.44,17.44,0,0,1-5.17.61,16.91,16.91,0,0,1-5.12-.62,4.33,4.33,0,0,1-2.68-2.12,8.22,8.22,0,0,1-.93-2.69,28.43,28.43,0,0,1-.16-3.57l0-51.91H31a11.52,11.52,0,0,1-4.85-.77,3.91,3.91,0,0,1-2.07-2.43,14.85,14.85,0,0,1-.52-4.35,14.56,14.56,0,0,1,.52-4.29,3.54,3.54,0,0,1,1.76-2.22A12.07,12.07,0,0,1,31.11,552.76Z"/><path class="cls-23" d="M131.91,574.42a22,22,0,0,1,17.22,7.87A28.16,28.16,0,0,1,156,601.53v18.2a33.22,33.22,0,0,1-.16,3.57,8.22,8.22,0,0,1-1,2.73c-.89,1.8-3.55,2.69-8,2.69q-6.3,0-7.86-2.69a8.26,8.26,0,0,1-1-2.8,33.59,33.59,0,0,1-.15-3.72V601.42a8.92,8.92,0,0,0-2.38-6.62,8.21,8.21,0,0,0-6-2.39,10.1,10.1,0,0,0-6.47,2.22,8,8,0,0,0-3.21,5v20.06a31.14,31.14,0,0,1-.15,3.57,8.58,8.58,0,0,1-1,2.74q-1.35,2.68-8,2.68c-4.34,0-7-.93-8-2.8a9.54,9.54,0,0,1-.88-2.68,31,31,0,0,1-.15-3.62l0-61.84a28.54,28.54,0,0,1,.16-3.57,8.13,8.13,0,0,1,.88-2.63c1-1.86,3.65-2.8,8.06-2.79s7,.93,7.86,2.79a8.3,8.3,0,0,1,1,2.74,29.07,29.07,0,0,1,.15,3.57v22.85Q125,574.42,131.91,574.42Z"/><path class="cls-23" d="M216.8,595q0,6.36-3.16,9.41a9.85,9.85,0,0,1-7,3.05l-24.51,0q0,2.91,3.41,4.87a13.7,13.7,0,0,0,6.83,2A28.45,28.45,0,0,0,201.8,613l1.13-.41a10.46,10.46,0,0,1,4.14-1.14c2.21,0,4.1,1.55,5.69,4.66a11.5,11.5,0,0,1,1.34,4.75q0,9.21-22,9.2a33.36,33.36,0,0,1-13.6-2.65,23.13,23.13,0,0,1-9.25-7,29.78,29.78,0,0,1-6.51-18.72q0-13,8.44-20.83t21-7.8q14.37,0,21.09,10.14A21.07,21.07,0,0,1,216.8,595ZM195,598q3.93,0,3.93-3.31a4.64,4.64,0,0,0-1.81-3.82,8.06,8.06,0,0,0-5.17-1.45,10.48,10.48,0,0,0-6.67,2.73q-3.31,2.75-3.31,5.85Z"/><path class="cls-23" d="M298.66,556.15a5,5,0,0,1,2.95-2.43,16.74,16.74,0,0,1,4.92-.61,17.53,17.53,0,0,1,4.75.52,7.51,7.51,0,0,1,2.69,1.24,4.29,4.29,0,0,1,1.29,2.17,16.37,16.37,0,0,1,.62,5.28l0,57.39a28.1,28.1,0,0,1-.16,3.61,8.24,8.24,0,0,1-1,2.69q-1.45,2.79-8.07,2.79a17.09,17.09,0,0,1-5.58-.62,6.05,6.05,0,0,1-2.59-2q-23.25-31-30.58-40.55l0,34a28.28,28.28,0,0,1-.16,3.62,8.32,8.32,0,0,1-1,2.69q-1.46,2.79-8.07,2.79-6.41,0-7.86-2.8a8.44,8.44,0,0,1-1-2.79,32.52,32.52,0,0,1-.15-3.62l0-57.7a12.7,12.7,0,0,1,1-5.74,4.92,4.92,0,0,1,2.95-2.43,21.23,21.23,0,0,1,10-.05,6.3,6.3,0,0,1,2.53,1.3,25,25,0,0,1,2.38,2.69q21.81,29.68,29.14,39.2l0-35A12.7,12.7,0,0,1,298.66,556.15Z"/><path class="cls-23" d="M359.51,580.12q.62-5.79,8.17-5.78a21.62,21.62,0,0,1,6,.62,4.32,4.32,0,0,1,2.73,2.17,8.77,8.77,0,0,1,.93,2.74,28.65,28.65,0,0,1,.16,3.57l0,36.19a28.43,28.43,0,0,1-.16,3.57,9.55,9.55,0,0,1-.88,2.74q-1.45,2.68-7.08,2.69c-3.76,0-6.28-.47-7.55-1.4a5.58,5.58,0,0,1-2.22-4.09q-3.84,5.48-12.78,5.47t-16.59-8.17a26.92,26.92,0,0,1-7.64-19,26.6,26.6,0,0,1,7.71-18.92q7.71-8.12,16.91-8.11a16.21,16.21,0,0,1,6.41,1.24,14.48,14.48,0,0,1,4,2.33A15.67,15.67,0,0,1,359.51,580.12Zm-18.84,21.5a8.61,8.61,0,0,0,2.69,6.16,8.8,8.8,0,0,0,6.51,2.74,8.23,8.23,0,0,0,6.36-2.79,9,9,0,0,0,2.54-6.15,9.56,9.56,0,0,0-2.43-6.26,8.06,8.06,0,0,0-6.51-2.9,8.41,8.41,0,0,0-6.62,2.89A9.48,9.48,0,0,0,340.67,601.62Z"/><path class="cls-23" d="M403.56,581.59q4.86-7.33,11.68-7.33,10.54,0,15.72,9A34.86,34.86,0,0,1,433.7,580a22.3,22.3,0,0,1,5.12-3.72,14.32,14.32,0,0,1,7.24-2,17.73,17.73,0,0,1,13.85,6.37q5.58,6.36,5.58,21.05v18.09a30.52,30.52,0,0,1-.16,3.57,8,8,0,0,1-1,2.74c-.89,1.86-3.55,2.79-8,2.79s-7-1-8-2.9a10,10,0,0,1-.88-2.74,31.14,31.14,0,0,1-.15-3.57v-18.1q0-9-6.41-9-3.62,0-4.91,2.38a14.25,14.25,0,0,0-1.3,6.72v18.1a30.63,30.63,0,0,1-.15,3.61,8.53,8.53,0,0,1-1,2.69q-1.44,2.79-8.06,2.79t-8-2.9a9.25,9.25,0,0,1-.88-2.74,30.52,30.52,0,0,1-.16-3.57V601.56q0-9-6.4-9-6.21,0-6.21,9v18.3a28.43,28.43,0,0,1-.16,3.57,8.22,8.22,0,0,1-1,2.74q-1.56,2.69-8.07,2.69c-4.34,0-7-.94-8-2.8a10,10,0,0,1-.88-2.69,30.83,30.83,0,0,1-.15-3.62l0-36.4a28.65,28.65,0,0,1,.16-3.57,7.26,7.26,0,0,1,1-2.63q1.54-2.79,7.34-2.79t7.55,1.87A7.54,7.54,0,0,1,403.56,581.59Z"/><path class="cls-23" d="M526.29,595.15q0,6.36-3.16,9.41a9.85,9.85,0,0,1-7,3.05l-24.51,0q0,2.89,3.41,4.86a13.5,13.5,0,0,0,6.83,2,28.49,28.49,0,0,0,9.41-1.23l1.14-.42a10.51,10.51,0,0,1,4.13-1.13c2.21,0,4.1,1.55,5.69,4.66a11.46,11.46,0,0,1,1.34,4.75q0,9.21-22,9.19A33.2,33.2,0,0,1,488,627.6a23.13,23.13,0,0,1-9.25-7,29.71,29.71,0,0,1-6.5-18.72q0-13,8.43-20.84t21.05-7.79q14.37,0,21.09,10.14A21.07,21.07,0,0,1,526.29,595.15Zm-21.82,3q3.93,0,3.93-3.31a4.64,4.64,0,0,0-1.81-3.82,8.06,8.06,0,0,0-5.17-1.45,10.43,10.43,0,0,0-6.67,2.73q-3.31,2.74-3.31,5.84Z"/><path class="cls-23" d="M560.3,618.28q-2.68-3.31-2.69-5.95c0-1.76,1.49-4.08,4.45-7a7.82,7.82,0,0,1,5.49-2.47q2.88,0,8.06,5.17a15.72,15.72,0,0,0,4.13,3.36,9.84,9.84,0,0,0,5,1.61q9.62,0,9.62-7.86,0-2.37-2.64-4a19.43,19.43,0,0,0-6.56-2.33,59.85,59.85,0,0,1-17-6.11,17.07,17.07,0,0,1-6.56-6.88A22.7,22.7,0,0,1,559,574.54a21.7,21.7,0,0,1,6.78-15.87q6.76-6.76,18.46-6.77a38,38,0,0,1,11.32,1.61q5.12,1.61,7.08,3.26l2.59,2q3.19,3,3.2,5.07t-2.48,5.68q-3.52,5.18-7.25,5.17a10.59,10.59,0,0,1-5.37-2.07,11.35,11.35,0,0,1-1.19-1,16.23,16.23,0,0,0-1.6-1.35,10.45,10.45,0,0,0-5.54-1.35,9.37,9.37,0,0,0-5.58,1.6,5.18,5.18,0,0,0-2.22,4.45,5.3,5.3,0,0,0,2.63,4.6,16.09,16.09,0,0,0,6.57,2.38,79.8,79.8,0,0,1,8.58,1.92,53.4,53.4,0,0,1,8.58,3.16,15.13,15.13,0,0,1,6.56,6.46,22.48,22.48,0,0,1,2.63,11.33A25.12,25.12,0,0,1,610,616.6a20.48,20.48,0,0,1-7,7.9A32,32,0,0,1,585.11,630a34.36,34.36,0,0,1-9.2-1.2,24.52,24.52,0,0,1-7-2.95q-5.49-3.32-7.65-6.41Z"/><path class="cls-23" d="M649,592.78l-6.72-.41v14.27a7.11,7.11,0,0,0,.87,4c.59.83,1.69,1.24,3.31,1.24a32,32,0,0,1,3.73.16,7.3,7.3,0,0,1,2.73,1q2.38,1.35,2.38,6.93c0,4.34-1,7-2.9,8a9.65,9.65,0,0,1-2.74.88,30,30,0,0,1-3.47.15q-10.76,0-16.33-4.87t-5.58-16.44v-15.3a26.86,26.86,0,0,1-4.24.3,4.72,4.72,0,0,1-3.77-1.76q-1.5-1.75-1.5-6a26.33,26.33,0,0,1,.52-6.16,5.64,5.64,0,0,1,1.45-2.74,6.37,6.37,0,0,1,4.14-1.34l3.41.42V564.44a29.68,29.68,0,0,1,.15-3.52,6.36,6.36,0,0,1,1-2.48c.89-1.72,3.55-2.58,8-2.58q7,0,8.37,3.83a19.06,19.06,0,0,1,.52,5.27V575.1c3-.28,5.33-.41,6.88-.41a30.3,30.3,0,0,1,3.51.15,8.42,8.42,0,0,1,2.74,1c1.8.89,2.69,3.55,2.69,8s-.94,7-2.8,8a9.55,9.55,0,0,1-2.74.88A31,31,0,0,1,649,592.78Z"/><path class="cls-23" d="M699.19,580.3q.63-5.79,8.17-5.79a21.57,21.57,0,0,1,6,.62,4.36,4.36,0,0,1,2.74,2.18,8.69,8.69,0,0,1,.93,2.74,30.94,30.94,0,0,1,.15,3.56l0,36.2a30.94,30.94,0,0,1-.15,3.56,9.77,9.77,0,0,1-.88,2.74c-1,1.8-3.33,2.69-7.09,2.69s-6.27-.47-7.55-1.4a5.6,5.6,0,0,1-2.22-4.09q-3.82,5.49-12.77,5.48t-16.59-8.18a27.21,27.21,0,0,1,.07-37.9q7.71-8.12,16.91-8.11a16.07,16.07,0,0,1,6.41,1.25,14.15,14.15,0,0,1,4,2.33A13.9,13.9,0,0,1,699.19,580.3Zm-18.83,21.49a8.57,8.57,0,0,0,2.69,6.16,8.76,8.76,0,0,0,6.51,2.74,8.23,8.23,0,0,0,6.36-2.79,9,9,0,0,0,2.54-6.15A9.53,9.53,0,0,0,696,595.5a8.07,8.07,0,0,0-6.51-2.9,8.34,8.34,0,0,0-6.62,2.89A9.38,9.38,0,0,0,680.36,601.79Z"/><path class="cls-23" d="M743.24,581.77q4.86-7.35,11.69-7.34,10.55,0,15.71,9a38,38,0,0,1,2.74-3.25,22.53,22.53,0,0,1,5.12-3.72,14.34,14.34,0,0,1,7.25-2,17.69,17.69,0,0,1,13.85,6.36q5.58,6.36,5.57,21.05V620a28.43,28.43,0,0,1-.16,3.57,8.22,8.22,0,0,1-1,2.74q-1.35,2.79-8,2.79t-8-2.9a9.25,9.25,0,0,1-.88-2.74,28.86,28.86,0,0,1-.15-3.57V601.75q0-9-6.41-9c-2.42,0-4,.79-4.92,2.37a14.32,14.32,0,0,0-1.29,6.72v18.1a28.38,28.38,0,0,1-.16,3.62,8.32,8.32,0,0,1-1,2.69q-1.45,2.79-8.07,2.78c-4.34,0-7-1-8-2.9a9.77,9.77,0,0,1-.88-2.74,30.94,30.94,0,0,1-.15-3.56v-18.1q0-9-6.41-9-6.2,0-6.21,9V620a30.94,30.94,0,0,1-.15,3.56,8.14,8.14,0,0,1-1,2.74c-1,1.8-3.73,2.69-8.07,2.69s-7-.94-8-2.8a9.27,9.27,0,0,1-.88-2.69,30.71,30.71,0,0,1-.15-3.62v-36.4a32.87,32.87,0,0,1,.16-3.56,7.57,7.57,0,0,1,1-2.64q1.56-2.79,7.35-2.79c3.86,0,6.37.63,7.55,1.87A7.54,7.54,0,0,1,743.24,581.77Z"/><path class="cls-23" d="M813.42,643.85l0-60.39a29.18,29.18,0,0,1,.16-3.52,8.39,8.39,0,0,1,.88-2.58c1-1.86,3.27-2.79,6.93-2.79s6.12.47,7.39,1.4a5.54,5.54,0,0,1,2.22,4.08q3.93-5.37,12.36-5.37t16,8a26.53,26.53,0,0,1,0,37q-7.5,8-16,8c-5.66,0-9.76-1.59-12.3-4.77v20.89a31.46,31.46,0,0,1-.16,3.52,8.71,8.71,0,0,1-.93,2.63,4.36,4.36,0,0,1-2.64,2.12,16.38,16.38,0,0,1-5.07.62,17.23,17.23,0,0,1-5.12-.62,4.44,4.44,0,0,1-2.68-2.07,7.78,7.78,0,0,1-.93-2.59A27.14,27.14,0,0,1,813.42,643.85Zm20.5-48.7a9.2,9.2,0,0,0-2.38,6.1,8.9,8.9,0,0,0,2.43,6,7.92,7.92,0,0,0,6.2,2.75,8.65,8.65,0,0,0,6.41-2.69,8.47,8.47,0,0,0,2.64-6.1,8.9,8.9,0,0,0-2.48-6.15,8.29,8.29,0,0,0-6.46-2.75A8,8,0,0,0,833.92,595.15Z"/><path class="cls-23" d="M929.59,563.56c2.61,0,4.13.9,4.54,2.69a17.33,17.33,0,0,1,.31,3.88,7.43,7.43,0,0,1-1,4.18c-.69,1-2,1.55-3.83,1.55h-7.24V599q0,4.25-2.69,5.07a13.92,13.92,0,0,1-3.67.41,11.65,11.65,0,0,1-3.62-.47,3.76,3.76,0,0,1-2-1.39,7.49,7.49,0,0,1-.82-3.73V575.85h-7.14q-3.93,0-4.75-2.59a11.76,11.76,0,0,1-.41-3.51,12.69,12.69,0,0,1,.41-3.57,3.22,3.22,0,0,1,1.24-1.91,5.79,5.79,0,0,1,3.11-.73Zm36.7,2.6a5.66,5.66,0,0,1,4.76-2.58,12.17,12.17,0,0,1,4.4.62,4,4,0,0,1,2.11,1.86,12.8,12.8,0,0,1,.83,4.76v28.23a15.48,15.48,0,0,1-.21,2.85,3,3,0,0,1-1.61,1.8,8.67,8.67,0,0,1-4.34.83,10.3,10.3,0,0,1-4.5-.78,3.13,3.13,0,0,1-1.81-1.76,12,12,0,0,1-.25-2.84V589q-4.14,6.21-7.65,6.21a5.61,5.61,0,0,1-3.52-1.56,14.89,14.89,0,0,1-2.89-3.1l-1-1.55v9.72a7.43,7.43,0,0,1-.73,3.93q-1.25,1.86-6,1.85-4.46,0-5.38-1.65a8.13,8.13,0,0,1-.72-3.83q.1-9.72.11-20.27t.21-11.63a4.58,4.58,0,0,1,1.81-2.38,6,6,0,0,1,3.88-1.29c2.42,0,4.17.56,5.27,1.66l.52.52,8.58,12.1Z"/><path class="cls-4" d="M572.83,450.63c14.81-18,36.52-18.84,60.64-18.11s44.46,29.68,60.35,48.62c11.34,13.51,18.48,32.55,11.6,47.8-5.2,11.5-17,18.19-28.1,24.21-12.41,6.7-27.16,10.62-41.61,8.57-7.51-1.07-13.36-1.5-20-5.5-9.25-5.59-18.19-12.86-22.39-22.71s4-32.33,13.09-37.14"/><path class="cls-5" d="M693.82,481.14c-15.89-18.94-36.22-47.89-60.35-48.62-19.46-.59-37.35-.15-51.31,9.49,8.68-1.25,18-1.21,27.81-.92,24.13.74,44.45,29.68,60.35,48.62,11.34,13.52,18.48,32.56,11.59,47.8-5.19,11.5-17,18.2-28.1,24.21-1.78,1,14.44-3.67,23.51-8.57,11.12-6,22.9-12.71,28.1-24.21,6.88-15.25-.26-34.29-11.6-47.8"/><path class="cls-6" d="M645.32,558.63c-22.86-2.28-49.57-8.55-52-25.12-1.53-10.6-1.07-45.61,53.95-48.05"/><path class="cls-6" d="M572.83,450.63c14.81-18,37.07-23.31,60.64-18.11,30.93,6.83,44.46,29.68,60.35,48.62,11.34,13.51,18.48,32.55,11.6,47.8-5.2,11.5-17,18.19-28.1,24.21-7,3.8-20.34,7.38-33.43,5.27"/></g></g></svg>